<?xml version="1.0" standalone="no"?>
<!DOCTYPE svg PUBLIC "-//W3C//DTD SVG 20010904//EN"
 "http://www.w3.org/TR/2001/REC-SVG-20010904/DTD/svg10.dtd">
<svg version="1.0" xmlns="http://www.w3.org/2000/svg"
 width="1000.000000pt" height="1000.000000pt" viewBox="0 0 1000.000000 1000.000000"
 preserveAspectRatio="xMidYMid meet">

<g transform="translate(0.000000,1000.000000) scale(0.100000,-0.100000)"
fill="#000000" stroke="none">
<path d="M4975 7401 c-11 -5 -184 -120 -385 -255 -203 -137 -366 -241 -367
-234 -14 101 -41 141 -104 158 -34 10 -47 8 -82 -9 -68 -33 -77 -58 -77 -209
l0 -129 -255 -172 c-270 -182 -285 -196 -285 -271 0 -32 7 -48 33 -76 28 -30
42 -37 83 -41 l50 -5 185 124 c748 505 1232 830 1243 834 12 5 132 -71 841
-536 171 -111 365 -239 433 -282 l122 -80 0 -509 c0 -280 -2 -509 -5 -509 -3
0 -33 23 -67 50 -69 56 -204 128 -288 155 -30 10 -57 19 -59 21 -2 2 12 22 32
46 81 100 123 233 113 356 -3 41 -2 72 3 72 17 0 72 52 88 83 21 41 20 124 -1
164 -42 82 -157 117 -241 74 l-40 -21 -80 40 c-203 102 -433 65 -590 -94 -96
-98 -145 -216 -145 -351 0 -144 46 -252 155 -360 l70 -71 -57 -33 c-84 -50
-186 -148 -243 -235 -27 -42 -52 -76 -55 -75 -3 0 -25 32 -50 71 -54 84 -168
196 -245 239 -30 17 -55 32 -55 34 0 2 29 31 64 65 205 197 210 517 10 717
-199 200 -516 200 -714 1 -181 -184 -196 -462 -36 -671 21 -27 36 -50 34 -52
-2 -1 -28 -10 -58 -20 -67 -22 -196 -85 -230 -114 l-25 -20 24 -1 c13 0 70
-15 126 -34 470 -157 911 -577 1117 -1063 57 -136 79 -217 81 -300 1 -35 3
-63 4 -63 1 0 13 26 28 57 70 155 215 360 359 510 167 175 334 299 531 394
201 97 382 145 591 156 l114 6 0 554 c0 304 2 553 5 553 3 0 24 -12 47 -27 82
-55 184 -27 209 58 17 54 -1 111 -44 142 -18 14 -434 286 -925 607 -919 599
-931 606 -987 581z"/>
<path d="M4787 6742 c-23 -26 -24 -154 -1 -176 19 -20 153 -23 172 -4 7 7 12
44 12 95 0 98 -5 103 -103 103 -49 0 -68 -4 -80 -18z"/>
<path d="M5048 6749 c-15 -8 -18 -24 -18 -92 0 -51 5 -88 12 -95 15 -15 142
-16 169 -2 16 9 19 22 19 95 0 73 -3 86 -19 95 -25 13 -141 13 -163 -1z"/>
<path d="M4786 6484 c-21 -21 -23 -156 -2 -173 9 -8 45 -11 98 -9 l83 3 3 83
c2 53 -1 89 -9 98 -17 21 -152 19 -173 -2z"/>
<path d="M5042 6488 c-12 -12 -17 -143 -6 -172 5 -13 23 -16 88 -16 50 0 87 5
94 12 7 7 12 42 12 88 0 46 -5 81 -12 88 -7 7 -42 12 -88 12 -46 0 -81 -5 -88
-12z"/>
<path d="M2760 5468 c-43 -71 -35 -186 29 -442 107 -422 293 -753 577 -1026
211 -203 384 -310 810 -500 144 -64 297 -138 340 -165 139 -87 223 -192 255
-320 l12 -48 33 80 c212 512 126 1055 -236 1498 -213 260 -527 481 -824 580
-220 74 -351 -10 -229 -146 20 -22 108 -88 196 -145 179 -119 331 -259 411
-379 45 -69 46 -70 23 -79 -12 -5 -83 -9 -157 -9 -156 -1 -262 20 -384 77
-281 129 -511 420 -607 766 -52 191 -119 290 -194 290 -29 0 -39 -6 -55 -32z"/>
<path d="M7129 5107 c-44 -30 -95 -115 -120 -202 -85 -296 -168 -451 -333
-623 -199 -207 -432 -301 -719 -289 -70 2 -131 8 -134 11 -9 9 76 131 143 204
77 86 173 162 348 277 117 77 154 108 177 143 43 68 36 107 -23 138 -123 64
-512 -105 -803 -347 -310 -259 -517 -601 -579 -954 -20 -115 -21 -345 -1 -456
18 -107 57 -242 97 -338 l31 -74 21 64 c30 92 67 149 140 215 83 77 170 125
423 238 463 207 616 302 847 526 242 235 404 499 517 840 45 137 89 322 104
438 10 76 -2 147 -32 182 -30 36 -58 38 -104 7z"/>
<path d="M222 2358 c-5 -7 -12 -22 -14 -33 -4 -18 -6 -17 -18 8 -14 30 -33 38
-23 10 11 -31 46 -63 69 -63 23 0 54 24 54 41 0 39 -46 64 -68 37z m43 -34 c0
-10 -8 -20 -17 -22 -18 -3 -26 27 -11 42 12 11 28 0 28 -20z"/>
<path d="M175 2244 c-20 -20 -16 -53 8 -68 22 -14 49 2 57 34 l5 22 14 -26
c15 -26 31 -35 31 -15 0 18 -57 69 -79 69 -11 0 -27 -7 -36 -16z m43 -26 c-2
-12 -9 -23 -15 -26 -19 -6 -29 28 -12 39 23 14 31 10 27 -13z"/>
<path d="M188 2143 c-19 -5 -34 -45 -23 -62 11 -18 22 -12 21 12 -1 32 34 34
64 2 32 -34 40 -32 40 15 0 44 -20 56 -21 13 0 -16 -3 -22 -6 -15 -7 17 -54
39 -75 35z"/>
<path d="M160 2032 c0 -5 7 -17 15 -28 13 -17 14 -17 15 -1 0 14 9 17 50 17
28 0 50 5 50 10 0 6 -28 10 -65 10 -36 0 -65 -4 -65 -8z"/>
<path d="M177 1962 c-22 -24 -21 -35 1 -55 36 -33 112 -13 112 28 0 20 -40 45
-71 45 -14 0 -33 -8 -42 -18z m77 -8 c24 -9 19 -33 -8 -40 -31 -7 -66 3 -66
21 0 21 41 32 74 19z"/>
<path d="M160 1841 c0 -22 5 -43 10 -46 6 -4 10 7 10 25 0 28 2 31 23 24 12
-3 34 -13 49 -20 31 -16 38 -17 38 -5 0 7 -108 61 -124 61 -3 0 -6 -18 -6 -39z"/>
<path d="M176 1764 c-19 -18 -20 -28 -6 -55 19 -35 70 -17 70 26 1 18 3 17 18
-7 17 -29 32 -36 32 -17 0 18 -57 69 -79 69 -11 0 -27 -7 -35 -16z m42 -26
c-2 -12 -9 -23 -15 -26 -19 -6 -29 28 -12 39 23 14 31 10 27 -13z"/>
<path d="M222 1658 c-5 -7 -12 -22 -14 -33 -4 -18 -6 -17 -18 8 -14 30 -33 38
-23 10 11 -31 46 -63 69 -63 23 0 54 24 54 41 0 39 -46 64 -68 37z m43 -34 c0
-10 -8 -20 -17 -22 -18 -3 -26 27 -11 42 12 11 28 0 28 -20z"/>
<path d="M236 1553 c-4 -4 -21 -8 -38 -8 -45 0 -45 -19 -1 -49 47 -33 63 -33
63 -1 0 16 6 25 15 25 8 0 15 7 15 16 0 10 -6 14 -15 10 -8 -3 -15 -1 -15 4 0
12 -14 13 -24 3z m1 -38 c9 -25 -2 -27 -28 -6 l-24 20 23 1 c12 0 25 -7 29
-15z"/>
<path d="M190 1449 c0 -5 -4 -7 -10 -4 -5 3 -10 2 -10 -4 0 -5 6 -12 13 -15 9
-5 9 -7 0 -12 -10 -4 -9 -9 2 -20 8 -9 20 -12 26 -8 6 3 14 1 18 -5 5 -8 15
-9 31 -3 19 7 21 10 7 15 -23 9 -22 28 1 20 12 -4 11 0 -7 17 -19 18 -25 20
-32 9 -5 -8 -4 -15 1 -17 12 -4 3 -22 -11 -22 -6 0 -9 8 -8 18 3 29 -1 42 -11
42 -5 0 -10 -5 -10 -11z"/>
<path d="M140 1280 c0 -6 38 -10 95 -10 57 0 95 4 95 10 0 6 -38 10 -95 10
-57 0 -95 -4 -95 -10z"/>
<path d="M261 1189 c-22 -18 -25 -19 -42 -3 -11 10 -22 14 -27 10 -4 -4 4 -16
17 -27 l23 -19 -46 0 c-34 0 -46 -4 -46 -15 0 -12 15 -15 75 -15 60 0 75 3 75
15 0 9 -9 15 -22 15 l-23 0 24 19 c13 10 22 23 20 29 -2 6 -14 3 -28 -9z"/>
<path d="M190 1081 c0 -27 27 -51 55 -51 24 0 45 25 45 54 0 25 -18 19 -22 -6
-2 -17 -10 -23 -28 -23 -18 0 -26 6 -28 23 -4 27 -22 30 -22 3z"/>
<path d="M206 994 c-19 -18 -20 -28 -6 -55 21 -39 90 -16 90 30 0 16 -30 41
-50 41 -10 0 -26 -7 -34 -16z m59 -29 c0 -22 -31 -33 -47 -17 -17 17 -1 44 24
40 15 -2 23 -10 23 -23z"/>
<path d="M190 900 c0 -5 -7 -10 -15 -10 -8 0 -15 -4 -15 -10 0 -5 6 -10 14
-10 8 0 17 -6 20 -12 5 -10 7 -10 12 0 3 6 21 12 40 12 34 0 56 22 39 38 -4 4
-10 1 -12 -5 -5 -15 -63 -18 -63 -3 0 6 -4 10 -10 10 -5 0 -10 -4 -10 -10z"/>
<path d="M212 810 c-19 -34 -35 -34 -40 -2 -4 29 -22 28 -22 -1 0 -52 52 -63
78 -17 20 35 37 34 37 -4 -1 -31 19 -29 23 3 8 53 -49 69 -76 21z"/>
<path d="M200 675 c-22 -26 3 -65 40 -65 35 0 58 36 45 67 -7 16 -9 15 -13 -7
-6 -40 -22 -48 -22 -12 0 25 -4 32 -19 32 -10 0 -24 -7 -31 -15z m30 -26 c0
-11 -4 -17 -10 -14 -5 3 -10 13 -10 21 0 8 5 14 10 14 6 0 10 -9 10 -21z"/>
<path d="M197 560 c-8 -21 -18 -30 -34 -30 -14 0 -23 -6 -23 -15 0 -13 13 -15
73 -13 67 3 72 5 75 26 5 30 -24 62 -55 62 -18 0 -28 -8 -36 -30z m61 -2 c19
-19 14 -28 -18 -28 -18 0 -30 5 -30 13 0 28 27 36 48 15z"/>
<path d="M206 464 c-19 -18 -20 -28 -6 -55 21 -39 90 -16 90 30 0 16 -30 41
-50 41 -10 0 -26 -7 -34 -16z m59 -29 c0 -22 -31 -33 -47 -17 -17 17 -1 44 24
40 15 -2 23 -10 23 -23z"/>
<path d="M163 362 c-31 -5 -29 -22 2 -22 15 0 25 -6 25 -14 0 -22 29 -46 56
-46 27 0 51 38 41 63 -6 15 -77 26 -124 19z m105 -39 c-2 -12 -12 -18 -28 -18
-16 0 -26 6 -28 18 -3 13 3 17 28 17 25 0 31 -4 28 -17z"/>
<path d="M220 246 c-36 -13 -66 -29 -68 -37 -1 -9 20 -21 68 -35 38 -12 70
-17 70 -12 0 6 -9 12 -20 15 -14 4 -20 14 -20 34 0 22 5 29 20 29 11 0 20 7
20 15 0 8 -1 15 -2 14 -2 0 -32 -11 -68 -23z m8 -51 c-7 -7 -48 7 -48 15 0 15
45 16 48 2 2 -8 2 -15 0 -17z"/>
</g>
</svg>
